<?xml version="1.0" encoding="UTF-8"?>
<!DOCTYPE svg PUBLIC "-//W3C//DTD SVG 1.1//EN" "http://www.w3.org/Graphics/SVG/1.1/DTD/svg11.dtd">
<!-- Creator: CorelDRAW 2021 (64 Bit) -->
<svg xmlns="http://www.w3.org/2000/svg" xml:space="preserve" width="31.9603mm" height="31.9079mm" version="1.1" style="shape-rendering:geometricPrecision; text-rendering:geometricPrecision; image-rendering:optimizeQuality; fill-rule:evenodd; clip-rule:evenodd"
viewBox="0 0 820.24 818.9"
 xmlns:xlink="http://www.w3.org/1999/xlink"
 xmlns:xodm="http://www.corel.com/coreldraw/odm/2003">
 <defs>
  <style type="text/css">
   <![CDATA[
    .fil0 {fill:black}
    .fil1 {fill:white}
   ]]>
  </style>
 </defs>
 <g id="Camada_x0020_1">
  <metadata id="CorelCorpID_0Corel-Layer"/>
  <path class="fil0" d="M342.78 7.77c-203.05,40.05 -383.04,215.97 -334.9,478.9 35.64,194.67 232.16,373.52 481.88,323.82 190.61,-37.93 372.65,-230.75 321.87,-476.99 -39.43,-191.21 -225.52,-373.73 -468.84,-325.74z"/>
  <path class="fil1" d="M315.2 604.19c31.61,6.54 129.02,9.24 161.5,4.8 31.46,-4.3 34.61,1.2 28.21,-38.56l-31.67 -143.25c-9.64,-48.56 -10.22,-27.22 9.58,-56.42 27.44,-40.48 37.56,-90.33 -2.38,-131.16 -72.73,-74.33 -197.41,-0.33 -162.34,98.61 25.12,70.87 46.2,0.85 20.1,122.84 -8.68,40.56 -26.67,103.83 -22.99,143.13z"/>
 </g>
</svg>
